<svg width="25" height="24" viewBox="0 0 25 24" fill="none" xmlns="http://www.w3.org/2000/svg">
<path d="M10.2332 10.4608C10.3228 10.1025 10.6025 9.82273 10.9608 9.73315L14.4187 8.86869C15.151 8.68559 15.8144 9.34899 15.6313 10.0814L14.7669 13.5392C14.6773 13.8975 14.3975 14.1773 14.0393 14.2668L10.5814 15.1313C9.84902 15.3144 9.18562 14.651 9.36872 13.9186L10.2332 10.4608Z" stroke="#E8E0E5" stroke-width="1.5" stroke-linecap="round" stroke-linejoin="round"/>
<path d="M12.5 3.5C6 3.5 4 5.5 4 12C4 18.5 6 20.5 12.5 20.5C19 20.5 21 18.5 21 12C21 5.5 19 3.5 12.5 3.5Z" stroke="#E8E0E5" stroke-width="1.5" stroke-linecap="round" stroke-linejoin="round"/>
</svg>
