<svg width="342" height="171" viewBox="0 0 342 171" fill="none" xmlns="http://www.w3.org/2000/svg">
<path d="M48.101 66.425C48.5008 68.8834 47.6535 71.4968 46.0544 73.2988C44.4373 75.0829 41.979 76.0794 39.5028 75.9421C38.7509 77.6487 37.3666 79.3433 35.6124 80.0951C33.876 80.8469 31.6623 80.7097 29.8902 79.8206H29.8723L29.8544 79.8027C29.1443 80.477 27.8376 80.9125 26.8709 81.0498C24.2097 81.3899 21.3635 80.5247 19.2572 78.7406C17.133 76.9446 15.8144 74.2535 15.707 71.5625C15.6771 71.5625 15.6473 71.5446 15.6175 71.5326C14.1735 70.9956 12.4192 69.2235 11.9299 67.6244C11.3631 65.7806 11.8703 63.9189 13.0696 62.5048C13.5291 61.9678 14.2689 61.383 15.0864 61.1086C15.0685 59.8197 15.5339 58.5547 16.3752 57.6359C17.1748 56.7289 18.3145 56.3291 19.5436 56.2217C19.5735 56.2038 19.6212 56.2038 19.651 56.2038C20.6356 54.5749 22.36 53.4054 24.2813 53.113C24.1262 54.1572 24.0785 55.2968 24.156 56.4663C24.2157 57.4807 24.3887 58.4473 24.6155 59.3424C25.5702 62.9702 27.766 65.4644 30.1527 65.3092C30.3377 65.2913 30.5226 65.2615 30.7076 65.2197C31.1372 65.1123 31.537 64.9273 31.907 64.6529C33.9058 63.2507 35.1649 59.7481 34.8904 55.7324C34.8426 55.1178 34.783 54.5152 34.6577 53.9483C34.5204 53.9006 34.3951 53.8708 34.2579 53.8409C34.3355 53.6261 34.425 53.4233 34.5204 53.2264C35.7019 50.8873 38.5003 49.4911 41.1794 49.9983C44.0674 50.5532 46.2692 53.4292 46.4362 56.347C48.0055 57.4986 49.1094 59.2708 49.4197 61.1623C49.7299 63.0299 49.2347 64.981 48.101 66.425Z" fill="#F26734" stroke="white" stroke-miterlimit="10"/>
<path d="M37.4741 55.3867C36.6745 54.6945 35.6781 54.2351 34.6577 53.9427C34.5205 53.8949 34.3952 53.8651 34.2579 53.8353C34.24 53.8174 34.2281 53.8174 34.2102 53.8174" stroke="white" stroke-miterlimit="10" stroke-linecap="round" stroke-linejoin="round"/>
<path d="M22.4135 56.771C21.8109 56.4488 20.6652 56.1862 19.5435 56.222" stroke="white" stroke-miterlimit="10" stroke-linecap="round" stroke-linejoin="round"/>
<path d="M15.0923 61.1025C15.0088 62.1706 15.2116 63.3162 15.5398 63.8354" stroke="white" stroke-miterlimit="10" stroke-linecap="round" stroke-linejoin="round"/>
<path d="M19.0007 71.9151C18.0698 72.1478 16.8347 72.0344 15.6294 71.5332" stroke="white" stroke-miterlimit="10" stroke-linecap="round" stroke-linejoin="round"/>
<path d="M29.8604 79.8389C30.5764 79.284 31.1552 78.5561 31.537 77.7207" stroke="white" stroke-miterlimit="10" stroke-linecap="round" stroke-linejoin="round"/>
<path d="M39.4908 75.9548C38.554 75.9369 37.6112 75.7579 36.7222 75.4297" stroke="white" stroke-miterlimit="10" stroke-linecap="round" stroke-linejoin="round"/>
<path d="M48.1009 66.3892C48.0114 65.4166 47.898 64.4141 47.4207 63.543" stroke="white" stroke-miterlimit="10" stroke-linecap="round" stroke-linejoin="round"/>
<path d="M41.3524 54.7599C40.5528 54.3721 39.616 54.3005 38.7986 54.563C37.9811 54.8316 37.3009 55.4342 36.9429 56.2099" stroke="white" stroke-miterlimit="10" stroke-linecap="round" stroke-linejoin="round"/>
<path d="M39.3178 59.5215C40.6126 60.4523 41.6986 61.8008 41.9731 63.3462C42.0506 63.7878 42.0626 64.2413 42.0208 64.6828C41.8955 66.1268 41.2272 67.4872 40.177 68.4419C39.1269 69.3966 37.7008 69.9336 36.2449 69.9277" stroke="white" stroke-miterlimit="10" stroke-linecap="round" stroke-linejoin="round"/>
<path d="M44.7714 59.2891C44.8669 60.1901 44.6521 61.103 44.1687 61.8369C43.6854 62.5708 42.9396 63.1257 42.0923 63.3763" stroke="white" stroke-miterlimit="10" stroke-linecap="round" stroke-linejoin="round"/>
<path d="M42.9933 71.1569C41.609 70.9839 40.356 70.1247 39.7593 68.8418" stroke="white" stroke-miterlimit="10" stroke-linecap="round" stroke-linejoin="round"/>
<path d="M26.6442 58.668C25.5642 58.8112 24.5439 59.2468 23.7086 59.9091C23.1477 60.3566 22.6703 60.9115 22.3362 61.55C21.6202 62.9283 21.6381 64.6706 22.2825 66.1623C22.9269 67.6481 24.168 68.8773 25.6179 69.6112" stroke="white" stroke-miterlimit="10" stroke-linecap="round" stroke-linejoin="round"/>
<path d="M31.686 64.2832C32.6169 65.763 32.9629 67.5829 32.6228 69.2357C32.4856 69.904 32.2469 70.5424 32.1216 71.2107C31.9963 71.879 32.0023 72.6129 32.3305 73.2335C32.6228 73.7944 33.1539 74.2061 33.7148 74.5044" stroke="white" stroke-miterlimit="10" stroke-linecap="round" stroke-linejoin="round"/>
<path d="M23.8815 68.5674C23.2192 69.1163 22.8134 69.9577 22.7955 70.8408C22.7776 71.7179 23.1476 72.6248 23.786 73.2633" stroke="white" stroke-miterlimit="10" stroke-linecap="round" stroke-linejoin="round"/>
<path d="M39.3118 64.4319C38.2139 64.772 36.943 64.223 36.1017 63.3638C35.7496 63.0058 35.4453 62.5881 35.2783 62.1167C35.1112 61.6453 35.0814 61.1262 35.2604 60.6787" stroke="white" stroke-miterlimit="10" stroke-linecap="round" stroke-linejoin="round"/>
<path d="M21.6559 64.3428C21.5485 64.7545 21.2501 65.0767 20.9339 65.3512C20.5102 65.7151 20.0329 66.0254 19.484 66.1746C18.935 66.3178 18.3204 66.282 17.8132 65.9896" stroke="white" stroke-miterlimit="10" stroke-linecap="round" stroke-linejoin="round"/>
<path d="M25.964 77.6427C24.5081 78.1141 22.7359 77.6248 21.6619 76.4434" stroke="white" stroke-miterlimit="10" stroke-linecap="round" stroke-linejoin="round"/>
<path d="M79.8745 13.9705C88.0909 5.36037 94.5112 14.5255 89.4573 21.2322C84.6002 27.6764 75.2442 27.6943 74.5282 27.4795C73.8719 27.1155 67.3143 20.4147 68.1974 12.3058C69.1163 3.89252 80.0774 2.00103 80.0058 14.0302" fill="url(#paint0_linear_395_16876)"/>
<path d="M107.758 55.201C88.7114 30.713 43.966 42.3663 45.4577 43.5298C53.6144 49.8786 64.7068 75.6434 40.547 86.2704C18.2847 96.0679 5.82592 71.1862 3.90459 71.1862C1.15984 71.1862 -4.51464 104.517 6.61354 124.07C17.7417 143.624 30.9643 146.613 32.0264 147.675C33.0885 148.737 33.8999 168.118 34.7234 168.941C35.5468 169.764 47.7251 171 58.2447 171C68.7642 171 81.0261 167.909 81.8376 167.097C82.6491 166.286 82.0345 145.915 82.84 145.915C83.6456 145.915 90.9848 149.006 95.6509 146.285C98.9565 144.358 102.763 139.292 104.953 130.956C102.841 131.326 99.1116 130.932 95.633 129.232C91.0445 126.988 88.1983 120.699 90.2091 119.53C91.0445 119.04 92.9061 123.504 97.4946 125.795C100.967 127.531 104.177 127.078 105.884 126.923C106.696 122.817 106.994 118.605 106.672 113.575C106.672 113.575 113.545 116.809 117.967 113.575C124.894 108.521 126.75 79.6293 107.758 55.201ZM96.0984 90.3935C88.4966 91.9031 85.376 83.8538 86.2352 82.9886C87.16 82.0637 90.3881 87.965 95.1914 87.1415C99.2907 86.4434 100.293 79.5815 101.504 79.5815C102.716 79.5875 103.485 88.9256 96.0984 90.3935Z" fill="url(#paint1_linear_395_16876)"/>
<path d="M27.2767 62.105C27.8316 65.0466 33.0586 64.2411 33.0586 61.1205C33.0586 59.2886 30.9881 48.2619 30.5525 37.2113C30.1169 26.1666 30.5525 21.1068 30.5525 21.1068C30.5525 21.1068 33.2197 25.9817 44.6283 23.1892C56.0429 20.4027 56.568 4.53681 46.8957 0.962672C37.2234 -2.61147 26.7278 4.0535 25.2002 16.202C24.3589 22.9087 25.2002 28.9353 25.2002 28.9353C25.2002 28.9353 19.3647 17.6937 11.8703 15.3368C4.37593 12.9859 -4.35953 21.1963 4.72798 30.2778C13.8155 39.3653 25.6239 36.9487 25.6239 36.9487C25.6239 36.9487 25.4687 52.5461 27.2767 62.105Z" fill="url(#paint2_linear_395_16876)"/>
<path d="M77.4937 6.65494C74.2179 3.85052 68.8299 6.54754 68.1974 12.3354C67.3083 20.4443 73.8719 27.1391 74.5282 27.5031C74.9578 27.6284 78.4544 27.6642 82.2374 26.3157C79.3077 19.8655 77.5534 13.487 77.4937 6.65494Z" fill="url(#paint3_linear_395_16876)"/>
<path d="M28.494 88.4603C13.7797 87.1775 5.456 71.1982 3.91655 71.1982C1.1718 71.1982 -4.50267 104.517 6.6255 124.059C17.7477 143.6 30.9702 146.595 32.0323 147.651C33.0944 148.714 33.9 168.082 34.7294 168.905C35.5528 169.729 47.7311 170.964 58.2447 170.964C67.3084 170.964 77.6489 168.673 80.8531 167.515C55.6849 148.887 38.7451 119.363 28.494 88.4603Z" fill="url(#paint4_linear_395_16876)"/>
<path d="M30.4631 34.6454C20.2299 31.4412 10.9217 25.4565 2.66354 17.8428C0.127632 20.7069 -0.206511 25.3849 4.73404 30.3254C13.8156 39.407 25.624 36.9904 25.624 36.9904C25.624 36.9904 25.4748 52.5639 27.2768 62.1168C27.8317 65.0585 33.0587 64.2529 33.0587 61.1323C33.0587 59.3004 30.9882 48.2797 30.5526 37.235C30.5168 36.3281 30.4929 35.4748 30.4631 34.6454Z" fill="url(#paint5_linear_395_16876)"/>
<path d="M235.888 90.0169C236.264 92.0076 239.807 91.4567 239.807 89.3534C239.807 88.1139 238.404 80.6519 238.116 73.1774C237.816 65.703 238.116 62.2725 238.116 62.2725C238.116 62.2725 239.919 65.5653 247.644 63.6872C255.369 61.7967 255.72 51.067 249.172 48.6506C242.624 46.2343 235.525 50.7415 234.486 58.9672C233.922 63.4994 234.486 67.581 234.486 67.581C234.486 67.581 230.529 59.9688 225.459 58.3787C220.388 56.7887 214.479 62.3476 220.626 68.4949C226.773 74.6423 234.761 73.0147 234.761 73.0147C234.761 73.0147 234.661 83.5441 235.888 90.0169Z" fill="url(#paint6_linear_395_16876)"/>
<path d="M147.535 53.6949C147.423 53.6573 147.323 53.6323 147.21 53.6072C147.273 53.432 147.348 53.2692 147.423 53.1064C147.46 53.2942 147.51 53.4946 147.535 53.6949Z" fill="url(#paint7_linear_395_16876)" stroke="white" stroke-miterlimit="10"/>
<path d="M146.435 98V66.4601H151.117V71.3882H151.528C152.185 69.7045 153.246 68.3972 154.71 67.4663C156.175 66.5217 157.934 66.0495 159.988 66.0495C162.068 66.0495 163.8 66.5217 165.183 67.4663C166.579 68.3972 167.667 69.7045 168.447 71.3882H168.776C169.584 69.7592 170.795 68.4656 172.411 67.5074C174.026 66.5354 175.963 66.0495 178.222 66.0495C181.042 66.0495 183.348 66.9324 185.141 68.6983C186.935 70.4505 187.831 73.1815 187.831 76.8913V98H182.985V76.8913C182.985 74.5641 182.349 72.9009 181.076 71.9016C179.803 70.9023 178.304 70.4026 176.579 70.4026C174.361 70.4026 172.643 71.0734 171.425 72.4149C170.207 73.7428 169.597 75.4265 169.597 77.4662V98H164.669V76.3985C164.669 74.6052 164.087 73.161 162.924 72.0659C161.76 70.957 160.261 70.4026 158.427 70.4026C157.168 70.4026 155.99 70.738 154.895 71.4088C153.814 72.0795 152.938 73.0104 152.267 74.2014C151.61 75.3786 151.281 76.7407 151.281 78.2876V98H146.435ZM200.817 62.6524V98H196.537V62.6524H200.817ZM198.677 58.2339C197.883 58.2339 197.198 57.9635 196.623 57.4227C196.059 56.8819 195.777 56.2318 195.777 55.4724C195.777 54.713 196.059 54.0628 196.623 53.522C197.198 52.9812 197.883 52.7108 198.677 52.7108C199.471 52.7108 200.15 52.9812 200.714 53.522C201.289 54.0628 201.577 54.713 201.577 55.4724C201.577 56.2318 201.289 56.8819 200.714 57.4227C200.15 57.9635 199.471 58.2339 198.677 58.2339ZM214.432 78.962V98H209.57V66.3523H214.267V71.2973H214.679C215.421 69.6902 216.547 68.399 218.058 67.4238C219.569 66.4348 221.52 65.9403 223.91 65.9403C226.053 65.9403 227.928 66.3798 229.535 67.2589C231.142 68.1243 232.392 69.4429 233.285 71.2149C234.178 72.9731 234.624 75.1983 234.624 77.8906V98H229.761V78.2202C229.761 75.734 229.116 73.7972 227.825 72.4099C226.533 71.0088 224.762 70.3083 222.509 70.3083C220.957 70.3083 219.569 70.6448 218.347 71.3179C217.138 71.991 216.183 72.9731 215.483 74.2643C214.782 75.5554 214.432 77.1213 214.432 78.962ZM257.273 66.3523V70.4731H240.872V66.3523H257.273ZM245.652 58.7701H250.515V88.9343C250.515 90.3079 250.714 91.3381 251.112 92.0249C251.524 92.6979 252.046 93.1512 252.678 93.3847C253.324 93.6045 254.004 93.7144 254.718 93.7144C255.254 93.7144 255.693 93.6869 256.037 93.632C256.38 93.5633 256.655 93.5083 256.861 93.4671L257.85 97.8352C257.52 97.9588 257.06 98.0824 256.469 98.206C255.879 98.3434 255.13 98.4121 254.223 98.4121C252.85 98.4121 251.504 98.1168 250.185 97.5261C248.88 96.9355 247.795 96.0358 246.93 94.827C246.078 93.6182 245.652 92.0935 245.652 90.2529V58.7701ZM281.585 77.6433V82.1762H263.124V77.6433H281.585ZM295.004 55.8031V98H290.141V55.8031H295.004Z" fill="#282875"/>
<path d="M147.687 98V66.4601H152.369V71.3882H152.78C153.437 69.7045 154.498 68.3972 155.962 67.4663C157.427 66.5217 159.186 66.0495 161.24 66.0495C163.32 66.0495 165.052 66.5217 166.435 67.4663C167.831 68.3972 168.919 69.7045 169.699 71.3882H170.028C170.836 69.7592 172.047 68.4656 173.662 67.5074C175.278 66.5354 177.215 66.0495 179.474 66.0495C182.293 66.0495 184.6 66.9324 186.393 68.6983C188.187 70.4505 189.083 73.1815 189.083 76.8913V98H184.237V76.8913C184.237 74.5641 183.601 72.9009 182.328 71.9016C181.055 70.9023 179.556 70.4026 177.831 70.4026C175.613 70.4026 173.895 71.0734 172.677 72.4149C171.459 73.7428 170.849 75.4265 170.849 77.4662V98H165.921V76.3985C165.921 74.6052 165.339 73.161 164.176 72.0659C163.012 70.957 161.513 70.4026 159.679 70.4026C158.42 70.4026 157.242 70.738 156.147 71.4088C155.066 72.0795 154.19 73.0104 153.519 74.2014C152.862 75.3786 152.533 76.7407 152.533 78.2876V98H147.687ZM202.069 62.6524V98H197.789V62.6524H202.069ZM199.929 58.2339C199.135 58.2339 198.45 57.9635 197.875 57.4227C197.311 56.8819 197.029 56.2318 197.029 55.4724C197.029 54.713 197.311 54.0628 197.875 53.522C198.45 52.9812 199.135 52.7108 199.929 52.7108C200.723 52.7108 201.402 52.9812 201.966 53.522C202.541 54.0628 202.829 54.713 202.829 55.4724C202.829 56.2318 202.541 56.8819 201.966 57.4227C201.402 57.9635 200.723 58.2339 199.929 58.2339ZM215.684 78.962V98H210.822V66.3523H215.519V71.2973H215.931C216.673 69.6902 217.799 68.399 219.31 67.4238C220.821 66.4348 222.772 65.9403 225.162 65.9403C227.305 65.9403 229.18 66.3798 230.787 67.2589C232.394 68.1243 233.644 69.4429 234.537 71.2149C235.429 72.9731 235.876 75.1983 235.876 77.8906V98H231.013V78.2202C231.013 75.734 230.368 73.7972 229.077 72.4099C227.785 71.0088 226.013 70.3083 223.761 70.3083C222.209 70.3083 220.821 70.6448 219.599 71.3179C218.39 71.991 217.435 72.9731 216.735 74.2643C216.034 75.5554 215.684 77.1213 215.684 78.962ZM258.525 66.3523V70.4731H242.124V66.3523H258.525ZM246.904 58.7701H251.767V88.9343C251.767 90.3079 251.966 91.3381 252.364 92.0249C252.776 92.6979 253.298 93.1512 253.93 93.3847C254.576 93.6045 255.256 93.7144 255.97 93.7144C256.506 93.7144 256.945 93.6869 257.289 93.632C257.632 93.5633 257.907 93.5083 258.113 93.4671L259.102 97.8352C258.772 97.9588 258.312 98.0824 257.721 98.206C257.131 98.3434 256.382 98.4121 255.475 98.4121C254.102 98.4121 252.756 98.1168 251.437 97.5261C250.132 96.9355 249.047 96.0358 248.182 94.827C247.33 93.6182 246.904 92.0935 246.904 90.2529V58.7701ZM282.837 77.6433V82.1762H264.376V77.6433H282.837ZM296.256 55.8031V98H291.393V55.8031H296.256Z" fill="#100D10"/>
<path d="M312.116 70.4499C310.188 70.4248 298.582 64.0897 301.174 59.7953C303.477 55.9767 308.298 63.1883 308.298 63.1883C308.298 63.1883 307.772 54.9626 310.714 55.0001C314.282 55.0502 313.331 63.6765 313.331 63.6765C313.331 63.6765 317.538 57.1035 319.991 59.6326C322.445 62.1616 314.658 70.4874 312.116 70.4499Z" fill="url(#paint8_linear_395_16876)"/>
<path d="M304.442 70.2616C303.465 70.3868 297.105 68.0581 298.107 65.6918C298.983 63.5884 301.975 66.8687 301.975 66.8687C301.975 66.8687 301.086 62.7371 302.589 62.5493C304.404 62.3114 304.567 66.7435 304.567 66.7435C304.567 66.7435 306.207 63.1002 307.634 64.1894C309.062 65.2787 305.731 70.0989 304.442 70.2616Z" fill="url(#paint9_linear_395_16876)"/>
<path d="M318.064 70.2748C317.212 69.774 313.694 63.9897 315.935 62.7502C317.938 61.6484 318.226 66.0805 318.226 66.0805C318.226 66.0805 320.104 62.2995 321.394 63.0757C322.959 64.0147 320.33 67.5955 320.33 67.5955C320.33 67.5955 323.873 65.755 324.324 67.5078C324.774 69.2481 319.178 70.9508 318.064 70.2748Z" fill="url(#paint10_linear_395_16876)"/>
<path d="M144.44 124V113.888C145.379 113.749 146.243 113.68 147.032 113.68C149.485 113.68 150.712 114.715 150.712 116.784C150.712 118.128 150.157 119.077 149.048 119.632L151.064 124H149.56L147.736 120C147.597 120.021 147.395 120.032 147.128 120.032C146.755 120.032 146.355 119.995 145.928 119.92V124H144.44ZM145.928 114.976V118.72C146.355 118.795 146.755 118.832 147.128 118.832C148.472 118.832 149.144 118.149 149.144 116.784C149.144 115.504 148.467 114.864 147.112 114.864C146.621 114.864 146.227 114.901 145.928 114.976ZM158.658 120.832H153.538C153.613 121.536 153.869 122.096 154.306 122.512C154.744 122.917 155.304 123.12 155.986 123.12C156.648 123.12 157.32 122.917 158.002 122.512L158.418 123.296C157.672 123.893 156.786 124.192 155.762 124.192C154.589 124.192 153.656 123.824 152.962 123.088C152.322 122.405 152.002 121.509 152.002 120.4C152.002 119.269 152.349 118.325 153.042 117.568C153.672 116.885 154.445 116.544 155.362 116.544C156.482 116.544 157.341 116.965 157.938 117.808C158.418 118.48 158.658 119.328 158.658 120.352V120.832ZM153.49 119.76H157.25C157.229 119.067 157.053 118.533 156.722 118.16C156.402 117.776 155.965 117.584 155.41 117.584C154.877 117.584 154.434 117.781 154.082 118.176C153.741 118.571 153.544 119.099 153.49 119.76ZM160.094 117.856V116.736H161.166V115.712C161.166 114.357 161.785 113.68 163.022 113.68C163.705 113.68 164.339 113.899 164.926 114.336L164.446 115.072C164.083 114.859 163.715 114.752 163.342 114.752C162.809 114.752 162.542 115.104 162.542 115.808V116.736H164.478V117.856H162.542V124H161.166V117.856H160.094ZM167.732 117.456H167.796C168.297 116.848 168.884 116.544 169.556 116.544C170.409 116.544 171.039 116.875 171.444 117.536L170.292 118.256C169.94 117.904 169.556 117.728 169.14 117.728C168.607 117.728 168.159 118 167.796 118.544V124H166.42V116.736H167.604L167.732 117.456ZM178.705 120.832H173.585C173.66 121.536 173.916 122.096 174.353 122.512C174.791 122.917 175.351 123.12 176.033 123.12C176.695 123.12 177.367 122.917 178.049 122.512L178.465 123.296C177.719 123.893 176.833 124.192 175.809 124.192C174.636 124.192 173.703 123.824 173.009 123.088C172.369 122.405 172.049 121.509 172.049 120.4C172.049 119.269 172.396 118.325 173.089 117.568C173.719 116.885 174.492 116.544 175.409 116.544C176.529 116.544 177.388 116.965 177.985 117.808C178.465 118.48 178.705 119.328 178.705 120.352V120.832ZM173.537 119.76H177.297C177.276 119.067 177.1 118.533 176.769 118.16C176.449 117.776 176.012 117.584 175.457 117.584C174.924 117.584 174.481 117.781 174.129 118.176C173.788 118.571 173.591 119.099 173.537 119.76ZM184.669 118.048C184.135 117.749 183.549 117.6 182.909 117.6C182.557 117.6 182.274 117.685 182.061 117.856C181.847 118.016 181.741 118.235 181.741 118.512C181.741 118.821 181.837 119.061 182.029 119.232C182.231 119.392 182.605 119.547 183.149 119.696C183.97 119.931 184.541 120.181 184.861 120.448C185.298 120.821 185.517 121.349 185.517 122.032C185.517 122.683 185.277 123.205 184.797 123.6C184.327 123.995 183.703 124.192 182.925 124.192C181.89 124.192 180.994 123.904 180.237 123.328L180.717 122.56C181.314 122.933 181.981 123.12 182.717 123.12C183.698 123.12 184.189 122.747 184.189 122C184.189 121.68 184.082 121.44 183.869 121.28C183.666 121.109 183.271 120.949 182.685 120.8C181.127 120.416 180.349 119.664 180.349 118.544C180.349 117.968 180.578 117.493 181.037 117.12C181.506 116.736 182.093 116.544 182.797 116.544C183.693 116.544 184.477 116.795 185.149 117.296L184.669 118.048ZM188.905 113.68V117.536C189.503 116.875 190.255 116.544 191.161 116.544C192.943 116.544 193.833 117.589 193.833 119.68V124H192.457V119.76C192.457 118.405 191.86 117.728 190.665 117.728C190.335 117.728 189.999 117.808 189.657 117.968C189.316 118.128 189.065 118.32 188.905 118.544V124H187.529V114.416L188.905 113.68ZM206.03 116.736L202.91 125.088C202.409 126.4 201.732 127.056 200.878 127.056C200.302 127.056 199.705 126.827 199.086 126.368L199.502 125.664C199.865 125.877 200.18 125.984 200.446 125.984C200.937 125.984 201.326 125.632 201.614 124.928L201.982 124H201.694L198.974 116.736H200.398L202.462 122.496L204.59 116.736H206.03ZM210.429 124.192C209.331 124.192 208.44 123.781 207.757 122.96C207.171 122.256 206.877 121.397 206.877 120.384C206.877 119.211 207.235 118.261 207.949 117.536C208.589 116.875 209.411 116.544 210.413 116.544C211.565 116.544 212.472 116.965 213.133 117.808C213.677 118.512 213.949 119.371 213.949 120.384C213.949 121.547 213.576 122.496 212.829 123.232C212.168 123.872 211.368 124.192 210.429 124.192ZM210.397 123.104C211.037 123.104 211.544 122.859 211.917 122.368C212.301 121.877 212.493 121.216 212.493 120.384C212.493 119.52 212.291 118.832 211.885 118.32C211.512 117.84 211.021 117.6 210.413 117.6C209.795 117.6 209.293 117.856 208.909 118.368C208.525 118.88 208.333 119.552 208.333 120.384C208.333 121.28 208.547 121.973 208.973 122.464C209.347 122.891 209.821 123.104 210.397 123.104ZM220.639 116.736H222.015V124H220.959L220.847 123.168H220.751C220.505 123.467 220.169 123.712 219.743 123.904C219.327 124.096 218.916 124.192 218.511 124.192C216.815 124.192 215.967 123.157 215.967 121.088V116.736H217.343V120.784C217.343 122.267 217.876 123.008 218.943 123.008C219.252 123.008 219.572 122.928 219.903 122.768C220.233 122.608 220.479 122.416 220.639 122.192V116.736ZM225.826 117.456H225.89C226.391 116.848 226.978 116.544 227.65 116.544C228.503 116.544 229.132 116.875 229.538 117.536L228.386 118.256C228.034 117.904 227.65 117.728 227.234 117.728C226.7 117.728 226.252 118 225.89 118.544V124H224.514V116.736H225.698L225.826 117.456ZM236.044 117.456H236.124C236.668 116.848 237.42 116.544 238.38 116.544C239.585 116.544 240.369 116.976 240.732 117.84C241.35 116.976 242.23 116.544 243.372 116.544C245.121 116.544 245.996 117.579 245.996 119.648V124H244.62V119.952C244.62 119.152 244.476 118.581 244.188 118.24C243.91 117.899 243.441 117.728 242.78 117.728C242.118 117.728 241.516 118.021 240.972 118.608C241.036 118.907 241.068 119.253 241.068 119.648V124H239.692V119.84C239.692 119.104 239.542 118.571 239.244 118.24C238.956 117.899 238.486 117.728 237.836 117.728C237.526 117.728 237.206 117.808 236.876 117.968C236.545 118.128 236.3 118.32 236.14 118.544V124H234.764V116.736H235.916L236.044 117.456ZM249.812 116.736V124H248.436V116.736H249.812ZM248.324 114.496C248.324 114.272 248.404 114.08 248.564 113.92C248.724 113.76 248.916 113.68 249.14 113.68C249.364 113.68 249.556 113.76 249.716 113.92C249.887 114.08 249.972 114.272 249.972 114.496C249.972 114.731 249.892 114.928 249.732 115.088C249.572 115.248 249.375 115.328 249.14 115.328C248.906 115.328 248.708 115.248 248.548 115.088C248.399 114.928 248.324 114.731 248.324 114.496ZM253.622 117.456H253.702C254.246 116.848 255.003 116.544 255.974 116.544C257.755 116.544 258.646 117.589 258.646 119.68V124H257.27V119.76C257.27 118.405 256.672 117.728 255.478 117.728C255.147 117.728 254.811 117.808 254.47 117.968C254.128 118.128 253.878 118.32 253.718 118.544V124H252.342V116.736H253.494L253.622 117.456ZM266.277 124L266.069 123.232C265.589 123.872 264.869 124.192 263.909 124.192C262.831 124.192 261.983 123.797 261.365 123.008C260.842 122.347 260.581 121.515 260.581 120.512C260.581 119.189 260.965 118.165 261.733 117.44C262.351 116.843 263.103 116.544 263.989 116.544C264.799 116.544 265.461 116.8 265.973 117.312V114.48L267.349 113.712V124H266.277ZM265.973 121.712V118.832C265.898 118.501 265.685 118.213 265.333 117.968C264.991 117.723 264.623 117.6 264.229 117.6C263.578 117.6 263.05 117.856 262.645 118.368C262.239 118.88 262.037 119.541 262.037 120.352C262.037 121.28 262.25 121.989 262.677 122.48C263.05 122.907 263.53 123.12 264.117 123.12C264.522 123.12 264.901 122.987 265.253 122.72C265.615 122.443 265.855 122.107 265.973 121.712Z" fill="#D390FF"/>
<defs>
<linearGradient id="paint0_linear_395_16876" x1="70.3589" y1="29.3258" x2="86.135" y2="4.37745" gradientUnits="userSpaceOnUse">
<stop stop-color="#FF1182"/>
<stop offset="0.9994" stop-color="#FF7339"/>
</linearGradient>
<linearGradient id="paint1_linear_395_16876" x1="225.404" y1="230.43" x2="31.7718" y2="-16.3718" gradientUnits="userSpaceOnUse">
<stop offset="0.00064767" stop-color="#F5BDFE"/>
<stop offset="0.659278" stop-color="#E6BDFE"/>
<stop offset="1" stop-color="#55D4FF" stop-opacity="0.67"/>
</linearGradient>
<linearGradient id="paint2_linear_395_16876" x1="41.0759" y1="59.306" x2="18.4347" y2="-10.7741" gradientUnits="userSpaceOnUse">
<stop offset="0.00064767" stop-color="#91ED84"/>
<stop offset="1" stop-color="#55D4FF"/>
</linearGradient>
<linearGradient id="paint3_linear_395_16876" x1="68.907" y1="28.4378" x2="84.677" y2="3.49913" gradientUnits="userSpaceOnUse">
<stop stop-color="#FF1182"/>
<stop offset="0.9994" stop-color="#FF7339"/>
</linearGradient>
<linearGradient id="paint4_linear_395_16876" x1="148.346" y1="216.137" x2="-2.45447" y2="49.7252" gradientUnits="userSpaceOnUse">
<stop offset="0.00064767" stop-color="#F5BDFE"/>
<stop offset="0.659278" stop-color="#E6BDFE"/>
<stop offset="1" stop-color="#55D4FF" stop-opacity="0.67"/>
</linearGradient>
<linearGradient id="paint5_linear_395_16876" x1="26.8717" y1="63.9072" x2="4.2416" y2="-6.13847" gradientUnits="userSpaceOnUse">
<stop offset="0.00064767" stop-color="#91ED84"/>
<stop offset="1" stop-color="#55D4FF"/>
</linearGradient>
<linearGradient id="paint6_linear_395_16876" x1="245.229" y1="88.1225" x2="229.906" y2="40.6958" gradientUnits="userSpaceOnUse">
<stop offset="0.00064767" stop-color="#91ED84"/>
<stop offset="1" stop-color="#55D4FF"/>
</linearGradient>
<linearGradient id="paint7_linear_395_16876" x1="147.807" y1="53.9613" x2="146.948" y2="53.3141" gradientUnits="userSpaceOnUse">
<stop offset="0.00064767" stop-color="#F5BDFE"/>
<stop offset="0.659278" stop-color="#E6BDFE"/>
<stop offset="1" stop-color="#55D4FF" stop-opacity="0.67"/>
</linearGradient>
<linearGradient id="paint8_linear_395_16876" x1="310.746" y1="55.0134" x2="310.509" y2="70.4375" gradientUnits="userSpaceOnUse">
<stop offset="0.00064767" stop-color="#91ED84"/>
<stop offset="1" stop-color="#55D4FF"/>
</linearGradient>
<linearGradient id="paint9_linear_395_16876" x1="302.57" y1="62.5579" x2="303.61" y2="70.3838" gradientUnits="userSpaceOnUse">
<stop offset="0.00064767" stop-color="#91ED84"/>
<stop offset="1" stop-color="#55D4FF"/>
</linearGradient>
<linearGradient id="paint10_linear_395_16876" x1="321.395" y1="63.0585" x2="317.347" y2="69.8359" gradientUnits="userSpaceOnUse">
<stop offset="0.00064767" stop-color="#91ED84"/>
<stop offset="1" stop-color="#55D4FF"/>
</linearGradient>
</defs>
</svg>
