<svg width="337" height="251" viewBox="0 0 337 251" fill="none" xmlns="http://www.w3.org/2000/svg">
<g clip-path="url(#clip0_395_22106)">
<path d="M337 220.579H0V220.748H337V220.579Z" fill="#F6E4FF"/>
<path d="M303.233 231.417H267.463V231.586H303.233V231.417Z" fill="#F6E4FF"/>
<path d="M223.242 229.309H183.706V229.477H223.242V229.309Z" fill="#F6E4FF"/>
<path d="M269.189 228.333H256.255V228.501H269.189V228.333Z" fill="#F6E4FF"/>
<path d="M96.8269 226.298H67.7168V226.467H96.8269V226.298Z" fill="#F6E4FF"/>
<path d="M63.9627 226.298H53.5562V226.467H63.9627V226.298Z" fill="#F6E4FF"/>
<path d="M125.142 229.141H88.6108V229.309H125.142V229.141Z" fill="#F6E4FF"/>
<path d="M159.738 190.535H29.5952C28.5757 190.534 27.5985 190.127 26.8782 189.406C26.158 188.685 25.7534 187.708 25.7534 186.689V3.84642C25.7623 2.8333 26.1708 1.86459 26.8901 1.15071C27.6094 0.436829 28.5815 0.0354269 29.5952 0.0336914H159.738C160.759 0.0336914 161.737 0.438937 162.459 1.16028C163.181 1.88162 163.586 2.85997 163.586 3.8801V186.689C163.586 187.709 163.181 188.687 162.459 189.409C161.737 190.13 160.759 190.535 159.738 190.535ZM29.5952 0.168417C28.6204 0.170202 27.6861 0.55849 26.9974 1.24806C26.3087 1.93762 25.9219 2.87212 25.9219 3.84642V186.689C25.9219 187.663 26.3087 188.598 26.9974 189.287C27.6861 189.977 28.6204 190.365 29.5952 190.367H159.738C160.713 190.365 161.648 189.977 162.338 189.288C163.028 188.598 163.416 187.664 163.418 186.689V3.84642C163.416 2.8715 163.028 1.93702 162.338 1.24764C161.648 0.558272 160.713 0.170198 159.738 0.168417H29.5952Z" fill="#F6E4FF"/>
<path d="M305.531 190.535H175.381C174.361 190.534 173.384 190.128 172.662 189.407C171.941 188.686 171.535 187.708 171.533 186.689V3.84642C171.544 2.83269 171.954 1.86399 172.674 1.15029C173.394 0.436593 174.367 0.035408 175.381 0.0336914H305.531C306.543 0.0371973 307.514 0.439382 308.232 1.15308C308.95 1.86677 309.357 2.83446 309.366 3.84642V186.689C309.366 187.707 308.962 188.683 308.244 189.404C307.525 190.125 306.549 190.532 305.531 190.535ZM175.381 0.168417C174.406 0.170198 173.471 0.558272 172.781 1.24764C172.092 1.93702 171.703 2.8715 171.701 3.84642V186.689C171.703 187.664 172.092 188.598 172.781 189.288C173.471 189.977 174.406 190.365 175.381 190.367H305.531C306.506 190.365 307.441 189.977 308.131 189.288C308.821 188.598 309.209 187.664 309.211 186.689V3.84642C309.209 2.8715 308.821 1.93702 308.131 1.24764C307.441 0.558272 306.506 0.170198 305.531 0.168417H175.381Z" fill="#F6E4FF"/>
<path d="M179.762 214.88H186.846V130.657H179.762V214.88Z" fill="#F6E4FF"/>
<path d="M43.6347 220.492L184.123 220.492V214.88L43.6347 214.88V220.492Z" fill="#F6E4FF"/>
<path d="M179.762 130.657H40.9185V214.88H179.762V130.657Z" fill="#F5F5F5"/>
<path d="M181.434 130.65H188.754V125.342H181.434V130.65Z" fill="#E0E0E0"/>
<path d="M181.434 125.349H39.0178V130.657H181.434V125.349Z" fill="#F6E4FF"/>
<path d="M168.945 137.191H51.7296C48.8335 137.191 46.4858 139.537 46.4858 142.432V161.004C46.4858 163.898 48.8335 166.244 51.7296 166.244H168.945C171.841 166.244 174.189 163.898 174.189 161.004V142.432C174.189 139.537 171.841 137.191 168.945 137.191Z" fill="white"/>
<path d="M168.945 174.92H51.7296C48.8335 174.92 46.4858 177.267 46.4858 180.161V198.733C46.4858 201.628 48.8335 203.974 51.7296 203.974H168.945C171.841 203.974 174.189 201.628 174.189 198.733V180.161C174.189 177.267 171.841 174.92 168.945 174.92Z" fill="white"/>
<path d="M80.1589 140.296H140.522C141.181 140.296 141.715 139.763 141.715 139.104V137.508C141.715 136.849 141.181 136.315 140.522 136.315H80.1589C79.5 136.315 78.9659 136.849 78.9659 137.508V139.104C78.9659 139.763 79.5 140.296 80.1589 140.296Z" fill="#F5F5F5"/>
<path d="M80.1589 178.02H140.522C141.181 178.02 141.715 177.486 141.715 176.827V175.231C141.715 174.572 141.181 174.038 140.522 174.038H80.1589C79.5 174.038 78.9659 174.572 78.9659 175.231V176.827C78.9659 177.486 79.5 178.02 80.1589 178.02Z" fill="#F5F5F5"/>
<path d="M301.406 158.282H280.04V162.364H301.406V158.282Z" fill="#F6E4FF"/>
<path d="M263.669 220.579H267.612V80.8689H263.669V220.579Z" fill="#F6E4FF"/>
<path d="M250.013 162.364H280.047V158.282H250.013V162.364Z" fill="#F5F5F5"/>
<path d="M301.406 195.877H280.04V199.959H301.406V195.877Z" fill="#F6E4FF"/>
<path d="M250.013 199.959H280.047V195.877H250.013V199.959Z" fill="#F5F5F5"/>
<path d="M301.406 83.1055H280.04V87.1876H301.406V83.1055Z" fill="#F6E4FF"/>
<path d="M250.013 87.1875H280.047V83.1053H250.013V87.1875Z" fill="#F5F5F5"/>
<path d="M301.406 120.694H280.04V124.776H301.406V120.694Z" fill="#F6E4FF"/>
<path d="M250.013 124.776H280.047V120.694H250.013V124.776Z" fill="#F5F5F5"/>
<path d="M293.702 220.579H297.645V80.8689H293.702V220.579Z" fill="#F6E4FF"/>
<path d="M276.097 220.579H280.04V80.8689H276.097V220.579Z" fill="#F5F5F5"/>
<path d="M250.014 220.579H253.957L253.957 80.8689H250.014L250.014 220.579Z" fill="#F5F5F5"/>
<path d="M59.2378 113.627L237.309 113.627V19.1378L59.2378 19.1378V113.627Z" fill="#E0E0E0"/>
<path d="M54.7422 113.627L234.768 113.627V19.1378L54.7422 19.1378V113.627Z" fill="#F5F5F5"/>
<path d="M228.311 106.184V26.5879L61.1858 26.5879V106.184L228.311 106.184Z" fill="white"/>
<path d="M168.5 251C240.674 251 299.182 247.586 299.182 243.374C299.182 239.163 240.674 235.749 168.5 235.749C96.3264 235.749 37.8181 239.163 37.8181 243.374C37.8181 247.586 96.3264 251 168.5 251Z" fill="#F6E4FF"/>
<path d="M261.391 140.97H74.5039C73.9092 140.968 73.3394 140.732 72.9189 140.311C72.4983 139.891 72.2613 139.321 72.2595 138.727C72.2613 138.133 72.4983 137.563 72.9189 137.143C73.3394 136.723 73.9092 136.486 74.5039 136.484H261.391C261.985 136.486 262.555 136.723 262.976 137.143C263.396 137.563 263.633 138.133 263.635 138.727C263.633 139.321 263.396 139.891 262.976 140.311C262.555 140.732 261.985 140.968 261.391 140.97Z" fill="#FFD68F"/>
<path opacity="0.3" d="M261.391 140.97H217.641C217.047 140.968 216.477 140.732 216.056 140.311C215.636 139.891 215.399 139.321 215.397 138.727C215.399 138.133 215.636 137.563 216.056 137.143C216.477 136.723 217.047 136.486 217.641 136.484H261.391C261.985 136.486 262.555 136.723 262.976 137.143C263.396 137.563 263.633 138.133 263.635 138.727C263.633 139.321 263.396 139.891 262.976 140.311C262.555 140.732 261.985 140.968 261.391 140.97Z" fill="#263238"/>
<path d="M256.646 146.595H112.915V162.23H256.646V146.595Z" fill="#263238"/>
<path opacity="0.1" d="M256.646 146.595H112.915V162.23H256.646V146.595Z" fill="white"/>
<path d="M254.556 240.263H258.857L258.681 140.97H252.723L254.556 240.263Z" fill="#263238"/>
<path opacity="0.1" d="M254.556 240.263H258.857L258.681 140.97H252.723L254.556 240.263Z" fill="white"/>
<path d="M214.925 240.263H210.618L220.351 140.97H226.309L214.925 240.263Z" fill="#263238"/>
<path opacity="0.2" d="M214.925 240.263H210.618L220.351 140.97H226.309L214.925 240.263Z" fill="white"/>
<path d="M111.419 240.263H115.719L115.544 140.97H109.586L111.419 240.263Z" fill="#263238"/>
<path opacity="0.1" d="M111.419 240.263H115.719L115.544 140.97H109.586L111.419 240.263Z" fill="white"/>
<path d="M71.7878 240.263H67.481L77.2135 140.97H83.1717L71.7878 240.263Z" fill="#263238"/>
<path opacity="0.2" d="M71.7878 240.263H67.481L77.2135 140.97H83.1717L71.7878 240.263Z" fill="white"/>
<path d="M192.838 136.484H182.917L178.947 117.09H188.868L192.838 136.484Z" fill="#263238"/>
<path d="M206.002 132.489H162.96C162.625 132.493 162.293 132.427 161.985 132.296C161.677 132.165 161.4 131.971 161.171 131.728C160.941 131.484 160.765 131.195 160.653 130.88C160.541 130.564 160.496 130.229 160.52 129.896L162.165 102.661C162.215 101.963 162.526 101.31 163.035 100.829C163.544 100.349 164.215 100.077 164.915 100.067H207.963C208.297 100.065 208.629 100.131 208.936 100.263C209.244 100.394 209.521 100.588 209.75 100.831C209.979 101.075 210.155 101.363 210.268 101.678C210.38 101.993 210.426 102.327 210.403 102.661L208.758 129.896C208.706 130.594 208.394 131.248 207.884 131.728C207.374 132.208 206.702 132.479 206.002 132.489Z" fill="#263238"/>
<path d="M205.327 132.489H162.286C161.951 132.493 161.619 132.427 161.311 132.296C161.003 132.165 160.726 131.971 160.496 131.728C160.267 131.484 160.091 131.195 159.979 130.88C159.867 130.564 159.822 130.229 159.846 129.896L161.491 102.661C161.541 101.963 161.852 101.31 162.361 100.829C162.87 100.349 163.541 100.077 164.24 100.067H207.289C207.623 100.065 207.955 100.131 208.262 100.263C208.57 100.394 208.847 100.588 209.076 100.831C209.305 101.075 209.481 101.363 209.594 101.678C209.706 101.993 209.752 102.327 209.729 102.661L208.084 129.896C208.032 130.594 207.72 131.248 207.21 131.728C206.7 132.208 206.028 132.479 205.327 132.489Z" fill="#FFD68F"/>
<path d="M162.279 131.142C162.13 131.143 161.981 131.114 161.843 131.056C161.706 130.998 161.581 130.913 161.477 130.805C161.376 130.694 161.298 130.563 161.248 130.42C161.198 130.278 161.177 130.127 161.187 129.977L162.832 102.742C162.857 102.382 163.015 102.045 163.275 101.796C163.536 101.547 163.88 101.404 164.24 101.395H207.289C207.439 101.392 207.588 101.421 207.727 101.48C207.865 101.539 207.99 101.626 208.093 101.736C208.196 101.845 208.275 101.975 208.324 102.117C208.374 102.259 208.393 102.41 208.381 102.56L206.736 129.795C206.713 130.155 206.555 130.493 206.294 130.742C206.033 130.992 205.688 131.134 205.327 131.142H162.279Z" fill="white"/>
<path opacity="0.2" d="M181.185 100.067L183.982 109.64L192.286 100.067H181.185Z" fill="black"/>
<path d="M114.277 76.827C114.344 77.3457 114.668 77.7364 115.011 77.7094C115.355 77.6825 115.571 77.2379 115.503 76.7192C115.436 76.2005 115.113 75.8098 114.776 75.8368C114.439 75.8637 114.216 76.3218 114.277 76.827Z" fill="#263238"/>
<path d="M114.843 77.6016C115.45 78.9462 116.234 80.2036 117.175 81.3402C116.434 82.0879 115.079 81.7848 115.079 81.7848L114.843 77.6016Z" fill="#A02724"/>
<path d="M112.558 74.8534C112.507 74.8629 112.454 74.8629 112.403 74.8534C112.328 74.8207 112.269 74.7604 112.237 74.6851C112.206 74.6098 112.205 74.5253 112.234 74.4492C112.41 74.0005 112.691 73.6011 113.055 73.2855C113.419 72.9698 113.855 72.7473 114.324 72.6372C114.363 72.6304 114.404 72.6315 114.443 72.6404C114.482 72.6493 114.518 72.6658 114.551 72.689C114.583 72.7121 114.611 72.7415 114.632 72.7754C114.654 72.8093 114.668 72.847 114.674 72.8864C114.688 72.9667 114.67 73.0493 114.623 73.1161C114.576 73.1829 114.505 73.2287 114.425 73.2434C114.057 73.3322 113.718 73.5102 113.435 73.7617C113.153 74.0131 112.938 74.3303 112.807 74.685C112.783 74.7312 112.747 74.7706 112.703 74.7999C112.66 74.8293 112.61 74.8476 112.558 74.8534Z" fill="#263238"/>
<path d="M99.004 84.9575L103.048 88.0562L108.568 92.2798C108.265 92.9146 108.083 93.5997 108.029 94.3007C107.833 95.8501 107.638 96.9952 111.082 97.945C111.448 98.0323 111.781 98.2228 112.041 98.4939C112.302 98.7651 112.479 99.1053 112.551 99.4742C112.686 100.39 112.127 101.495 108.946 102.041C105.864 102.501 102.716 101.965 99.9611 100.512C98.6131 99.8379 98.6131 99.0296 99.1793 97.6621C100.878 93.7753 100.055 88.8174 99.004 84.9575Z" fill="#B55B52"/>
<path d="M94.3601 98.8885C95.1367 97.3952 95.7773 95.8351 96.2743 94.227C96.2743 94.227 106.519 93.6679 109.903 94.6784C113.286 95.6888 115.389 100.067 115.389 100.067L94.3601 98.8885Z" fill="#FFD68F"/>
<path d="M98.6468 106.507C98.3974 107.261 98.1211 108.184 97.8582 109.033L97.0966 111.66C96.6248 113.412 96.1664 115.17 95.8092 116.921C95.4289 118.634 95.1387 120.365 94.9398 122.108C94.732 123.709 94.6823 125.327 94.7915 126.938C94.8312 127.62 94.935 128.297 95.1015 128.959C95.142 129.094 95.1757 129.242 95.2228 129.37L95.3576 129.734C95.3257 129.669 95.2897 129.606 95.2498 129.545C95.181 129.447 95.1067 129.352 95.0274 129.262C94.9389 129.16 94.8394 129.067 94.7308 128.986C94.596 128.892 94.5758 128.905 94.6028 128.939C94.8002 129.081 95.0127 129.2 95.2363 129.296C95.5396 129.43 95.9103 129.565 96.281 129.693C97.0427 129.949 97.8852 130.185 98.7546 130.414C102.232 131.29 106.027 131.97 109.727 132.758L109.606 137.426C107.629 137.69 105.641 137.854 103.648 137.918C101.625 137.992 99.6006 137.958 97.5818 137.817C96.5128 137.746 95.4485 137.615 94.3938 137.426C93.8412 137.325 93.2682 137.211 92.6616 137.042C91.964 136.862 91.2865 136.612 90.6396 136.295C90.1608 136.064 89.7088 135.782 89.2916 135.453C88.9963 135.218 88.7233 134.956 88.4761 134.671C88.3216 134.489 88.1776 134.298 88.0448 134.099C87.9774 133.984 87.9032 133.87 87.8426 133.755L87.7549 133.593L87.2899 132.644C87.1483 132.327 87.0337 132.017 86.9124 131.701C86.4872 130.521 86.1801 129.303 85.9958 128.063C85.3218 123.381 85.8542 119.205 86.5552 115.143C86.9326 113.122 87.3775 111.101 87.9032 109.181C88.1728 108.204 88.4559 107.228 88.7592 106.264C89.0625 105.301 89.386 104.372 89.7769 103.314L98.6468 106.507Z" fill="#B55B52"/>
<path d="M92.4122 98.0529C98.7815 96.3688 102.563 101.583 100.406 110.178C98.249 118.774 97.5279 119.097 97.5279 119.097L84.3916 116.908C86.0092 108.487 85.8811 99.7706 92.4122 98.0529Z" fill="#FFD68F"/>
<path d="M112.989 130.892L111.999 130.798C109.181 130.798 108.696 131.573 106.964 133.182L106.29 136.726C110.839 139.05 113.279 136.497 113.286 136.497H117.498L116.016 133.129C115.757 132.52 115.34 131.991 114.808 131.598C114.275 131.205 113.648 130.961 112.989 130.892Z" fill="#B55B52"/>
<path d="M97.2651 78.2552C98.4109 84.392 98.7681 88.043 102.286 90.7847C107.571 94.9006 114.85 90.9868 115.564 84.6008C116.204 78.8548 114.216 69.781 107.867 68.1711C106.451 67.8215 104.97 67.8342 103.56 68.2079C102.15 68.5816 100.857 69.3043 99.8009 70.3093C98.7444 71.3142 97.9582 72.569 97.515 73.9577C97.0718 75.3465 96.9858 76.8245 97.2651 78.2552Z" fill="#B55B52"/>
<path d="M109.431 80.3973C113.812 80.047 112.531 75.4326 111.176 74.4694C113.232 73.6879 114.647 70.4276 112.673 68.1911C113.832 65.1666 110.516 61.5222 104.699 62.0679C100.453 62.4586 99.9812 64.7018 99.9812 64.7018C99.9812 64.7018 94.8925 64.1696 92.7762 68.3663C90.9698 71.9635 93.1603 73.8833 93.1603 73.8833C93.1603 73.8833 89.359 74.988 90.4104 79.9459C91.5293 85.2945 95.6407 84.0551 95.6407 84.0551C95.6407 84.0551 94.7173 88.9591 100.278 89.0264C105.083 89.087 105.144 85.4899 105.144 85.4899C105.144 85.4899 111.372 84.9106 109.431 80.3973Z" fill="#263238"/>
<path d="M106.168 80.7544C106.66 82.0708 107.62 83.1598 108.864 83.8127C110.469 84.6345 111.695 82.9302 111.412 81.1788C111.156 79.6092 109.788 77.5951 108.096 77.5008C106.404 77.4065 105.569 79.1242 106.168 80.7544Z" fill="#B55B52"/>
<path d="M171.513 232.549L177.505 230.118L173.272 215.729L167.28 218.161L171.513 232.549Z" fill="#B55B52"/>
<path opacity="0.2" d="M169.336 225.133L175.388 222.917L173.272 215.729L167.28 218.161L169.336 225.133Z" fill="black"/>
<path d="M176.986 227.72L170.131 230.097C170.074 230.115 170.02 230.144 169.974 230.182C169.927 230.221 169.889 230.268 169.861 230.321C169.833 230.374 169.815 230.432 169.81 230.492C169.804 230.552 169.81 230.613 169.828 230.67L171.378 236.207C171.478 236.492 171.685 236.727 171.957 236.861C172.228 236.994 172.54 237.016 172.827 236.921C175.193 236.046 176.15 235.574 179.075 234.308C181.955 233.104 184.771 231.755 187.514 230.266C189.799 228.919 188.424 226.622 187.311 226.999C184.676 227.888 180.356 228.467 178.165 227.713C177.782 227.584 177.367 227.586 176.986 227.72Z" fill="#263238"/>
<path d="M123.389 149.579C123.389 149.579 168.675 153.621 169.848 166.642C172.207 193.136 175.826 218.679 175.826 218.679L166.613 222.048C166.613 222.048 155.337 192.947 155.485 172.199C142.423 168.515 108.076 173.924 102.461 163.853C97.5008 154.961 101.855 148.575 101.855 148.575L123.389 149.579Z" fill="#263238"/>
<path d="M165.925 224.143L177.397 220.269L176.898 215.042L163.964 219.212L165.925 224.143Z" fill="#FFD68F"/>
<path d="M179.513 227.995C178.962 228.172 178.392 228.288 177.815 228.339C177.786 228.343 177.756 228.338 177.729 228.325C177.703 228.311 177.681 228.291 177.667 228.265C177.652 228.241 177.644 228.213 177.644 228.184C177.644 228.156 177.652 228.128 177.667 228.103C177.815 227.901 179.136 226.123 179.978 226.15C180.075 226.155 180.168 226.185 180.251 226.235C180.333 226.286 180.402 226.356 180.45 226.439C180.538 226.558 180.592 226.698 180.608 226.845C180.623 226.992 180.599 227.14 180.538 227.275C180.297 227.633 179.932 227.89 179.513 227.995ZM178.165 227.995C179.331 227.834 180.127 227.524 180.309 227.14C180.347 227.052 180.36 226.955 180.347 226.86C180.334 226.765 180.295 226.676 180.235 226.601C180.214 226.558 180.181 226.521 180.141 226.495C180.1 226.469 180.053 226.454 180.005 226.453C179.52 226.433 178.684 227.302 178.132 227.995H178.165Z" fill="#FFD68F"/>
<path d="M177.848 228.332C177.824 228.339 177.798 228.339 177.774 228.332C177.749 228.328 177.726 228.318 177.706 228.303C177.686 228.287 177.67 228.268 177.66 228.245C177.66 228.171 176.885 226.466 177.289 225.658C177.341 225.555 177.416 225.464 177.508 225.394C177.601 225.324 177.708 225.276 177.821 225.254C177.945 225.212 178.08 225.214 178.202 225.26C178.325 225.305 178.428 225.391 178.495 225.503C178.866 226.123 178.401 227.706 177.923 228.278C177.904 228.303 177.878 228.322 177.848 228.332ZM177.848 225.57C177.791 225.59 177.738 225.621 177.693 225.662C177.648 225.702 177.611 225.751 177.586 225.806C177.343 226.284 177.639 227.308 177.862 227.881C178.233 227.248 178.502 226.069 178.26 225.665C178.212 225.591 178.131 225.503 177.916 225.55L177.848 225.57Z" fill="#FFD68F"/>
<path d="M139.451 236.827L145.854 236.524L146.898 221.408L140.495 221.711L139.451 236.827Z" fill="#B55B52"/>
<path d="M146.002 235.433L138.75 235.203C138.69 235.199 138.629 235.206 138.572 235.225C138.514 235.244 138.461 235.274 138.416 235.313C138.37 235.353 138.332 235.401 138.305 235.455C138.278 235.509 138.262 235.568 138.258 235.628L137.725 241.347C137.72 241.499 137.745 241.65 137.798 241.792C137.851 241.935 137.932 242.065 138.036 242.176C138.14 242.287 138.265 242.376 138.404 242.438C138.543 242.501 138.692 242.535 138.844 242.539C141.372 242.573 142.578 242.465 145.766 242.539C147.728 242.6 151.59 242.89 154.279 242.539C156.968 242.189 156.557 239.555 155.384 239.454C152.614 239.232 148.9 237.319 147.128 235.83C146.809 235.572 146.412 235.432 146.002 235.433Z" fill="#263238"/>
<path d="M148.28 236.625C147.701 236.591 147.127 236.496 146.568 236.342C146.539 236.335 146.513 236.32 146.493 236.299C146.473 236.278 146.46 236.251 146.455 236.223C146.45 236.194 146.453 236.164 146.465 236.137C146.477 236.111 146.496 236.088 146.521 236.072C146.73 235.931 148.597 234.725 149.379 235.075C149.467 235.114 149.545 235.174 149.603 235.251C149.662 235.327 149.701 235.418 149.716 235.513C149.755 235.655 149.755 235.804 149.717 235.946C149.679 236.089 149.604 236.218 149.5 236.321C149.147 236.575 148.71 236.683 148.28 236.625ZM146.986 236.133C148.132 236.402 149.008 236.396 149.298 236.133C149.364 236.062 149.41 235.975 149.432 235.88C149.453 235.785 149.449 235.686 149.419 235.594C149.413 235.547 149.395 235.503 149.366 235.465C149.338 235.427 149.3 235.398 149.257 235.378C148.812 235.176 147.721 235.682 146.932 236.133H146.986Z" fill="#FFD68F"/>
<path d="M146.575 236.349C146.551 236.355 146.525 236.355 146.501 236.349C146.479 236.335 146.461 236.316 146.448 236.294C146.435 236.271 146.428 236.246 146.427 236.221C146.427 236.147 146.339 234.287 147.006 233.681C147.094 233.596 147.201 233.534 147.319 233.501C147.437 233.468 147.561 233.465 147.68 233.493C147.809 233.5 147.932 233.55 148.029 233.636C148.125 233.721 148.19 233.837 148.213 233.964C148.334 234.671 147.33 235.985 146.676 236.349C146.644 236.362 146.607 236.362 146.575 236.349ZM147.539 233.782C147.478 233.778 147.418 233.787 147.361 233.808C147.304 233.829 147.252 233.861 147.208 233.903C146.811 234.26 146.723 235.325 146.723 235.924C147.296 235.466 147.97 234.463 147.889 233.998C147.889 233.91 147.822 233.809 147.606 233.775L147.539 233.782Z" fill="#FFD68F"/>
<path opacity="0.2" d="M140.495 221.717L146.905 221.414L146.299 230.057L139.916 230.043L140.495 221.717Z" fill="black"/>
<path d="M108.346 148.858C108.346 148.858 157.143 156.315 156.368 167.544C154.973 187.753 148.193 227.248 148.193 227.248L138.581 227.383C138.581 227.383 136.31 186.871 139.929 172.105C127.925 172.105 94.0636 171.687 89.4467 165.524C84.3377 158.713 89.5882 148.009 89.5882 148.009L108.346 148.858Z" fill="#263238"/>
<path d="M137.449 228.131L149.082 227.955L149.655 221.805L136.889 222.31L137.449 228.131Z" fill="#FFD68F"/>
<path d="M116.939 97.3729C113.01 96.605 95.2901 96.8273 95.2901 96.8273C93.5189 96.7788 91.7939 97.3962 90.4561 98.5574C89.1183 99.7186 88.265 101.339 88.0648 103.099C87.4448 108.562 90.9159 120.768 91.0372 126.992C91.1855 134.638 89.7229 137.737 89.5746 148.03L123.389 149.579C123.389 128.878 122.486 111.741 121.67 103.523C121.381 100.633 120.868 98.1341 116.939 97.3729Z" fill="#FFD68F"/>
<path opacity="0.3" d="M116.939 97.3729C113.01 96.605 95.2901 96.8273 95.2901 96.8273C93.5189 96.7788 91.7939 97.3962 90.4561 98.5574C89.1183 99.7186 88.265 101.339 88.0648 103.099C87.4448 108.562 90.9159 120.768 91.0372 126.992C91.1855 134.638 89.7229 137.737 89.5746 148.03L123.389 149.579C123.389 128.878 122.486 111.741 121.67 103.523C121.381 100.633 120.868 98.1341 116.939 97.3729Z" fill="white"/>
<path d="M121.57 103.894C122.628 107.531 123.693 111.27 124.791 114.921C125.89 118.572 127.015 122.243 128.283 125.699C128.593 126.581 128.957 127.403 129.253 128.252L129.772 129.444L129.84 129.592V129.667V129.707V129.66C129.723 129.452 129.578 129.261 129.408 129.094C129.179 128.872 129.091 128.851 129.071 128.851C129.221 128.987 129.395 129.094 129.583 129.168C129.913 129.327 130.253 129.464 130.601 129.579C131.363 129.842 132.219 130.077 133.088 130.313C136.613 131.209 140.462 131.896 144.209 132.698L144.088 137.366C142.076 137.637 140.051 137.801 138.022 137.858C135.968 137.937 133.911 137.899 131.862 137.743C130.772 137.665 129.687 137.526 128.613 137.326C128.047 137.218 127.46 137.083 126.827 136.901C126.075 136.691 125.351 136.392 124.67 136.012C124.127 135.701 123.628 135.318 123.187 134.874C122.85 134.527 122.56 134.137 122.324 133.715L122.095 133.291L121.334 131.849C120.889 130.906 120.404 129.956 119.986 129.02C119.157 127.127 118.429 125.254 117.701 123.375C116.973 121.495 116.353 119.616 115.726 117.73C114.479 113.937 113.353 110.185 112.356 106.278L121.57 103.894Z" fill="#B55B52"/>
<path d="M111.965 100.141C116.589 95.426 122.5 97.9993 125.041 106.514C127.582 115.029 127.123 115.648 127.123 115.648L114.701 120.465C111.77 112.354 107.234 104.944 111.965 100.141Z" fill="#FFD68F"/>
<path d="M147.512 130.892L146.521 130.798C143.704 130.798 143.225 131.573 141.493 133.182L140.819 136.726C145.368 139.05 147.808 136.497 147.808 136.497H152.027L150.538 133.129C150.28 132.519 149.864 131.99 149.331 131.596C148.799 131.203 148.17 130.96 147.512 130.892Z" fill="#B55B52"/>
<path d="M91.0574 174.563H134.247C135.197 174.563 135.966 173.794 135.966 172.846V170.07C135.966 169.122 135.197 168.353 134.247 168.353H91.0574C90.1082 168.353 89.3387 169.122 89.3387 170.07V172.846C89.3387 173.794 90.1082 174.563 91.0574 174.563Z" fill="#FFD68F"/>
<path d="M91.253 243.718H89.3389L91.5429 174.563H94.1917L91.253 243.718Z" fill="#FFD68F"/>
<path opacity="0.4" d="M91.253 243.718H89.3389L91.5429 174.563H94.1917L91.253 243.718Z" fill="white"/>
<path d="M108.858 243.718H110.772L108.575 174.563H105.926L108.858 243.718Z" fill="#FFD68F"/>
<path opacity="0.4" d="M108.858 243.718H110.772L108.575 174.563H105.926L108.858 243.718Z" fill="white"/>
<path d="M116.447 243.718H114.533L116.737 174.563H119.386L116.447 243.718Z" fill="#FFD68F"/>
<path opacity="0.4" d="M116.447 243.718H114.533L116.737 174.563H119.386L116.447 243.718Z" fill="white"/>
<path d="M134.052 243.718H135.966L133.769 174.563H131.12L134.052 243.718Z" fill="#FFD68F"/>
<path opacity="0.4" d="M134.052 243.718H135.966L133.769 174.563H131.12L134.052 243.718Z" fill="white"/>
<g opacity="0.3">
<path d="M91.5429 174.557H94.1917L94.0636 177.5H91.4485L91.5429 174.557Z" fill="#FFD68F"/>
<path d="M108.662 177.5H106.047L105.926 174.557H108.568L108.662 177.5Z" fill="#FFD68F"/>
<path d="M119.379 174.557L119.258 177.5H116.643L116.737 174.557H119.379Z" fill="#FFD68F"/>
<path d="M133.863 177.5H131.241L131.12 174.557H133.769L133.863 177.5Z" fill="#FFD68F"/>
</g>
<path d="M262.186 90.0368H154.231C153.393 90.0456 152.561 89.8803 151.789 89.5515C151.018 89.2227 150.323 88.7376 149.748 88.1267C149.174 87.5158 148.732 86.7924 148.452 86.0023C148.171 85.2122 148.058 84.3726 148.118 83.5364L152.236 15.2508C152.366 13.5013 153.146 11.8636 154.424 10.6605C155.701 9.45731 157.383 8.77585 159.138 8.75033H267.066C267.904 8.74161 268.736 8.90687 269.508 9.23566C270.279 9.56445 270.974 10.0496 271.549 10.6605C272.123 11.2714 272.565 11.9948 272.845 12.7849C273.126 13.575 273.24 14.4146 273.179 15.2508L269.054 83.5633C268.92 85.3029 268.142 86.9301 266.872 88.1272C265.602 89.3242 263.931 90.0051 262.186 90.0368Z" fill="#FFD68F"/>
<path d="M168.675 75.5942L178.63 109.639L208.165 75.5942H168.675Z" fill="#FFD68F"/>
<path opacity="0.1" d="M256.922 62.5595H196.424C195.953 62.5644 195.487 62.4718 195.054 62.2876C194.621 62.1033 194.231 61.8314 193.909 61.4889C193.587 61.1465 193.339 60.741 193.181 60.298C193.024 59.855 192.959 59.3842 192.993 58.9152L195.305 20.6397C195.377 19.6589 195.815 18.7407 196.531 18.0661C197.247 17.3916 198.19 17.0096 199.174 16.9954H259.672C260.144 16.9853 260.612 17.0744 261.048 17.2569C261.483 17.4394 261.875 17.7112 262.198 18.0548C262.522 18.3983 262.769 18.806 262.925 19.2513C263.081 19.6966 263.141 20.1696 263.103 20.6397L260.791 58.9152C260.718 59.896 260.281 60.8142 259.565 61.4888C258.849 62.1633 257.906 62.5453 256.922 62.5595Z" fill="white"/>
<path opacity="0.1" d="M224.556 79.0701H164.051C163.582 79.0741 163.116 78.9808 162.684 78.7961C162.252 78.6115 161.863 78.3394 161.541 77.997C161.22 77.6547 160.972 77.2495 160.815 76.807C160.658 76.3645 160.594 75.8942 160.628 75.4258L162.939 37.1503C163.012 36.1706 163.448 35.2534 164.163 34.579C164.877 33.9046 165.819 33.5219 166.801 33.506H227.306C227.778 33.4969 228.246 33.5867 228.68 33.7696C229.115 33.9525 229.506 34.2245 229.828 34.5679C230.151 34.9114 230.398 35.3187 230.553 35.7635C230.709 36.2083 230.769 36.6808 230.73 37.1503L228.418 75.4258C228.346 76.4055 227.91 77.3227 227.195 77.9971C226.48 78.6715 225.539 79.0543 224.556 79.0701Z" fill="white"/>
<g opacity="0.5">
<path d="M163.25 14.6918C163.237 15.209 163.032 15.7031 162.674 16.0769C162.316 16.4508 161.832 16.6775 161.315 16.7127C161.07 16.7005 160.829 16.6369 160.61 16.5259C160.391 16.4149 160.197 16.2591 160.042 16.0685C159.887 15.8779 159.774 15.6568 159.71 15.4197C159.646 15.1825 159.632 14.9345 159.671 14.6918C159.686 14.1755 159.892 13.6831 160.249 13.3099C160.607 12.9367 161.09 12.709 161.605 12.6709C161.851 12.683 162.091 12.7467 162.31 12.8577C162.529 12.9686 162.723 13.1245 162.878 13.3151C163.033 13.5057 163.146 13.7267 163.21 13.9639C163.274 14.2011 163.288 14.4491 163.25 14.6918Z" fill="white"/>
<path d="M169.848 14.6918C169.834 15.2086 169.629 15.7017 169.271 16.0753C168.913 16.4488 168.43 16.676 167.914 16.7127C167.668 16.7014 167.427 16.6385 167.207 16.5279C166.986 16.4173 166.792 16.2616 166.636 16.0709C166.48 15.8802 166.367 15.6588 166.302 15.4212C166.238 15.1836 166.224 14.935 166.262 14.6918C166.278 14.1755 166.484 13.6831 166.841 13.3099C167.198 12.9367 167.681 12.709 168.197 12.6709C168.442 12.6832 168.683 12.7468 168.902 12.8577C169.122 12.9686 169.316 13.1243 169.471 13.3148C169.627 13.5052 169.741 13.7262 169.806 13.9634C169.871 14.2005 169.885 14.4487 169.848 14.6918Z" fill="white"/>
<path d="M176.494 14.6918C176.481 15.209 176.276 15.7031 175.918 16.0769C175.561 16.4508 175.076 16.6775 174.559 16.7127C174.314 16.7005 174.074 16.6369 173.854 16.5259C173.635 16.4149 173.442 16.2591 173.286 16.0685C173.131 15.8779 173.018 15.6568 172.954 15.4197C172.89 15.1825 172.877 14.9345 172.915 14.6918C172.93 14.1755 173.136 13.6831 173.493 13.3099C173.851 12.9367 174.334 12.709 174.849 12.6709C175.095 12.683 175.335 12.7467 175.554 12.8577C175.773 12.9686 175.967 13.1245 176.122 13.3151C176.277 13.5057 176.39 13.7267 176.454 13.9639C176.518 14.2011 176.532 14.4491 176.494 14.6918Z" fill="white"/>
</g>
<path opacity="0.3" d="M261.35 89.4037H153.423C152.561 89.4105 151.707 89.2391 150.915 88.9003C150.123 88.5615 149.41 88.0627 148.82 87.4351C148.23 86.8076 147.776 86.0649 147.487 85.2537C147.198 84.4425 147.08 83.5803 147.141 82.7213L151.266 14.4358C151.395 12.6434 152.193 10.9647 153.501 9.73124C154.808 8.49781 156.531 7.79929 158.329 7.77363H266.23C267.091 7.76686 267.945 7.93825 268.737 8.27703C269.529 8.6158 270.243 9.11463 270.833 9.74219C271.423 10.3697 271.876 11.1125 272.165 11.9237C272.454 12.7349 272.572 13.5971 272.512 14.456L268.393 82.7415C268.263 84.53 267.468 86.205 266.164 87.4376C264.861 88.6703 263.144 89.3715 261.35 89.4037ZM158.329 8.11718C156.615 8.13808 154.97 8.80188 153.722 9.9771C152.474 11.1523 151.712 12.7532 151.589 14.4627L147.464 82.7483C147.405 83.5618 147.515 84.3788 147.787 85.1477C148.06 85.9166 148.489 86.6206 149.047 87.2151C149.606 87.8097 150.282 88.2819 151.033 88.6018C151.784 88.9217 152.593 89.0823 153.409 89.0736H261.35C263.064 89.0512 264.708 88.3869 265.956 87.212C267.204 86.037 267.965 84.437 268.09 82.7281L272.208 14.4425C272.266 13.6266 272.154 12.8076 271.879 12.0373C271.604 11.2669 271.171 10.5622 270.609 9.96754C270.047 9.37292 269.368 8.90142 268.614 8.58291C267.86 8.26439 267.048 8.1058 266.23 8.11718H158.329Z" fill="#263238"/>
<path d="M202.908 49.4846C202.449 50.4546 202.032 51.2831 201.56 52.1791C201.088 53.075 200.616 53.8833 200.131 54.7254C199.14 56.4027 198.109 58.0935 197.003 59.6698C196.446 60.4781 195.876 61.2798 195.292 62.0746C194.678 62.856 194.099 63.6509 193.445 64.4121C192.169 65.9898 190.794 67.4838 189.327 68.885C188.956 69.2488 188.552 69.5586 188.161 69.9426C187.773 70.3062 187.363 70.6459 186.934 70.9598L185.64 71.9365L185.242 72.2127C185.066 72.3242 184.884 72.4254 184.696 72.5159C184.326 72.6934 183.937 72.829 183.537 72.92C182.746 73.1048 181.923 73.1111 181.13 72.9387C180.336 72.7663 179.59 72.4193 178.947 71.9231C178.628 71.6716 178.337 71.3871 178.078 71.0743L177.896 70.8318L177.808 70.7105L177.774 70.6566L177.653 70.4411L177.168 69.5654C177.019 69.2824 176.918 69.013 176.797 68.7368C176.372 67.7204 176.025 66.6733 175.759 65.6044C175.29 63.6568 174.961 61.678 174.775 59.6833C174.578 57.7407 174.492 55.7885 174.519 53.8362C174.533 53.2823 174.745 52.7517 175.116 52.3401C175.487 51.9285 175.993 51.6631 176.543 51.5915C177.093 51.52 177.65 51.6471 178.114 51.95C178.579 52.2529 178.919 52.7116 179.075 53.2434V53.3242C179.968 56.7575 181.073 60.1321 182.384 63.4286C182.684 64.1261 183.034 64.8014 183.429 65.4495C183.517 65.5842 183.604 65.7459 183.692 65.8604L183.948 66.1703L184.009 66.2511L183.975 66.1972L183.901 66.0962C183.795 65.9581 183.673 65.8337 183.537 65.7257C183.268 65.5088 182.955 65.3526 182.62 65.2676C182.285 65.1967 181.938 65.1967 181.603 65.2676C181.428 65.3044 181.259 65.3609 181.097 65.436C181.009 65.436 180.935 65.5236 180.854 65.564C180.774 65.6044 180.652 65.7055 180.74 65.6314L181.582 64.8096C181.865 64.5536 182.142 64.2437 182.418 63.9473C182.694 63.6509 182.978 63.3613 183.247 63.0447C185.469 60.3811 187.492 57.5577 189.3 54.5974C190.223 53.0952 191.133 51.5661 191.996 50.0167L193.296 47.686L194.53 45.4091L194.597 45.2879C195.182 44.2414 196.149 43.4612 197.296 43.1103C198.443 42.7594 199.681 42.865 200.752 43.4049C201.823 43.9448 202.644 44.8773 203.043 46.0077C203.442 47.1381 203.389 48.379 202.894 49.4711L202.908 49.4846Z" fill="#263238"/>
<path d="M175.152 53.54L171.87 51.6605L175.402 48.0566C176.437 48.8232 177.396 49.6871 178.266 50.6366C178.471 50.8539 178.622 51.1161 178.708 51.4022C178.793 51.6884 178.81 51.9905 178.758 52.2845C178.705 52.5784 178.585 52.8561 178.406 53.0951C178.227 53.3342 177.994 53.5281 177.727 53.6612C177.32 53.8499 176.873 53.9375 176.425 53.9164C175.976 53.8953 175.54 53.7661 175.152 53.54Z" fill="#FFC3BD"/>
<path d="M171.122 47.8007L172.908 46.5275C173.14 46.3588 173.429 46.2882 173.713 46.3311C173.997 46.374 174.252 46.5268 174.424 46.7565L175.402 48.0566L171.87 51.6605L170.758 49.1277C170.657 48.8984 170.638 48.6413 170.704 48.3996C170.77 48.158 170.918 47.9465 171.122 47.8007Z" fill="#FFC3BD"/>
<path d="M195.837 46.4666C196.105 45.5864 196.61 44.7969 197.298 44.1849C197.985 43.5728 198.828 43.162 199.733 42.9974C201.042 42.7085 202.368 42.5059 203.703 42.3912C207.723 42.2344 211.749 42.3063 215.761 42.6067C217.864 42.7482 220.014 43.0446 221.726 43.3275H221.786C222.693 43.4778 223.503 43.9813 224.039 44.7276C224.575 45.4739 224.792 46.4021 224.644 47.3086C223.802 52.1722 221.328 60.633 221.059 68.6154C220.701 79.0971 220.863 85.1328 220.681 87.6589L193.687 87.1402C191.807 61.5222 194.146 52.2665 195.837 46.4666Z" fill="white"/>
<path d="M222.501 42.9301H222.42C220.614 42.6337 218.376 42.3171 216.132 42.1689L214.932 42.1016C213.752 46.9786 206.723 55.1834 204.593 67.6185C203.77 57.2245 203.137 46.3589 204.343 42.1218C202.435 42.1797 200.532 42.3394 198.641 42.6C197.641 42.8262 196.719 43.3131 195.968 44.0112C195.218 44.7093 194.666 45.5937 194.368 46.5744C192.71 51.4515 189.542 62.3777 191.49 89.242H221.49C221.685 86.5474 220.984 80.889 222.07 72.179C223.114 63.7452 224.617 52.2666 225.5 47.1403C225.658 46.1848 225.432 45.2057 224.87 44.4168C224.308 43.6279 223.456 43.0934 222.501 42.9301Z" fill="#263238"/>
<path opacity="0.2" d="M203.952 87.841C203.907 87.8428 203.863 87.827 203.829 87.7969C203.795 87.7667 203.774 87.7246 203.77 87.6793C203.137 80.101 204.323 69.2219 204.337 69.1074C204.339 69.0843 204.346 69.062 204.357 69.0417C204.368 69.0214 204.384 69.0035 204.402 68.9891C204.42 68.9747 204.441 68.964 204.463 68.9577C204.486 68.9514 204.509 68.9497 204.532 68.9525C204.579 68.9576 204.622 68.9808 204.653 69.0173C204.683 69.0538 204.698 69.1006 204.694 69.1478C204.694 69.2556 203.494 80.1077 204.128 87.6456C204.13 87.6691 204.128 87.693 204.122 87.7158C204.115 87.7385 204.104 87.7596 204.089 87.7779C204.073 87.7962 204.055 87.8112 204.034 87.822C204.013 87.8329 203.989 87.8393 203.966 87.841H203.952Z" fill="white"/>
<path opacity="0.3" d="M221.449 53.5935C220.337 58.6322 220.93 65.611 222.123 71.9768C223.006 64.8296 224.213 55.5538 225.096 49.8145C223.862 48.9926 222.332 49.5719 221.449 53.5935Z" fill="black"/>
<path d="M204.276 42.3575C207.774 41.5895 208.381 39.4339 208.131 37.0493C208.07 36.4535 207.973 35.8619 207.841 35.2776L212.209 31.7074L215.424 29.0938C214.548 32.9604 213.584 40.0132 216.226 42.6471C216.226 42.6471 214.069 46.1837 208.07 45.7525C203.002 45.3888 204.276 42.3575 204.276 42.3575Z" fill="#FFC3BD"/>
<path d="M209.594 44.8569L208.623 45.7798L211.723 46.9452L211.319 45.7663L209.594 44.8569Z" fill="#E0E0E0"/>
<path d="M211.966 48.5885C211.966 48.5885 210.746 45.51 209.594 44.8566C211.861 44.3164 213.937 43.1681 215.599 41.5356L217.439 42.2699C217.439 42.2699 218.019 45.8401 211.966 48.5885Z" fill="#F5F5F5"/>
<path d="M207.895 44.6211L208.623 45.7797L205.361 46.0627L206.015 45.032L207.895 44.6211Z" fill="#E0E0E0"/>
<path d="M203.723 47.7199C204.919 46.4473 206.331 45.3979 207.895 44.6212C206.123 44.0958 206.015 41.6572 206.015 41.6572L204.296 41.9873C204.296 41.9873 201.142 45.0523 203.723 47.7199Z" fill="#F5F5F5"/>
<path opacity="0.2" d="M207.841 35.271C207.972 35.8577 208.069 36.4515 208.131 37.0494C209.762 36.753 211.946 35.0285 212.175 33.3781C212.253 32.8247 212.268 32.2644 212.222 31.7075L207.841 35.271Z" fill="black"/>
<path d="M202.537 17.6421C200.973 19.562 201.121 26.5071 204.431 26.5879C207.74 26.6687 205.381 14.1393 202.537 17.6421Z" fill="#263238"/>
<path d="M216.792 22.6943C216.462 27.9553 216.529 31.0473 213.874 33.7687C209.883 37.8576 203.413 35.5067 202.166 30.2726C201.054 25.5572 201.782 17.7499 206.925 15.6145C208.048 15.1342 209.276 14.9517 210.49 15.0847C211.704 15.2177 212.863 15.6616 213.856 16.3736C214.848 17.0855 215.64 18.0414 216.154 19.1487C216.668 20.256 216.888 21.4773 216.792 22.6943Z" fill="#FFC3BD"/>
<path d="M214.204 18.3159C210.895 21.5965 215.195 24.0013 213.53 25.7662C216.651 27.3964 215.505 28.5955 215.505 28.5955C215.182 29.4924 215.182 30.4739 215.505 31.3708C219.023 30.4681 225.554 18.7875 218.423 16.9956C214.157 18.8952 214.204 18.3159 214.204 18.3159Z" fill="#263238"/>
<path d="M215.559 20.6738C212.424 21.1588 208.482 19.6634 206.035 18.3969C203.588 17.1305 203.231 19.5219 204.134 20.2494C202.564 20.3033 200.575 19.0638 201.068 16.2952C201.519 13.7691 204.828 11.3778 209.54 13.5132C212.876 15.0221 216.987 13.0349 218.592 14.7796C220.196 16.5243 217.648 20.3437 215.559 20.6738Z" fill="#263238"/>
<path d="M217.702 17.2446C219.805 16.9684 219.892 15.6414 219.306 13.3174C221.577 16.5441 220.654 17.5343 219.306 18.3157C217.803 17.8105 217.702 17.2446 217.702 17.2446Z" fill="#263238"/>
<path d="M218.207 26.7297C217.741 27.7588 216.928 28.5911 215.909 29.0807C214.608 29.6667 213.948 28.4677 214.298 27.0598C214.615 25.7866 215.646 23.9544 216.994 23.9678C218.342 23.9813 218.794 25.4296 218.207 26.7297Z" fill="#FFC3BD"/>
<path d="M208.576 24.2844C208.576 24.7088 208.347 25.0591 208.071 25.0658C207.794 25.0726 207.592 24.7223 207.592 24.2844C207.592 23.8466 207.821 23.5098 208.098 23.5098C208.374 23.5098 208.576 23.8533 208.576 24.2844Z" fill="#263238"/>
<path d="M203.75 24.3246C203.75 24.7557 203.521 25.0992 203.238 25.106C202.955 25.1127 202.732 24.7624 202.739 24.3313C202.746 23.9002 202.962 23.5566 203.245 23.5566C203.528 23.5566 203.75 23.9002 203.75 24.3246Z" fill="#263238"/>
<path d="M205.57 24.4727C205.066 25.7846 204.386 27.022 203.548 28.1507C203.838 28.3545 204.169 28.4932 204.518 28.5571C204.867 28.6211 205.226 28.6088 205.57 28.5212V24.4727Z" fill="#ED847E"/>
<path d="M207.268 29.6733C207.758 29.6186 208.23 29.4627 208.656 29.2157C209.082 28.9687 209.452 28.6359 209.742 28.2385C209.76 28.2108 209.766 28.1771 209.759 28.1449C209.752 28.1127 209.733 28.0846 209.705 28.0667C209.677 28.0489 209.644 28.0427 209.611 28.0497C209.579 28.0566 209.551 28.0761 209.533 28.1038C209.209 28.5273 208.79 28.8696 208.311 29.1034C207.831 29.3373 207.303 29.4563 206.77 29.451C206.753 29.451 206.737 29.4543 206.722 29.4609C206.706 29.4674 206.693 29.4769 206.681 29.4889C206.67 29.5009 206.661 29.515 206.656 29.5305C206.65 29.546 206.647 29.5625 206.648 29.579C206.648 29.5955 206.652 29.6119 206.658 29.627C206.665 29.6422 206.674 29.6559 206.686 29.6672C206.698 29.6786 206.712 29.6874 206.728 29.693C206.743 29.6987 206.76 29.7012 206.776 29.7003C206.952 29.6733 207.113 29.6733 207.268 29.6733Z" fill="#263238"/>
<path d="M210.915 22.5801C210.957 22.5777 210.998 22.5611 211.029 22.5329C211.056 22.5137 211.079 22.4891 211.096 22.4607C211.113 22.4324 211.124 22.4008 211.129 22.368C211.133 22.3352 211.131 22.3018 211.122 22.2699C211.113 22.238 211.097 22.2083 211.077 22.1826C210.845 21.8637 210.541 21.6044 210.189 21.4263C209.838 21.2483 209.449 21.1565 209.055 21.1587C209.022 21.1612 208.99 21.1703 208.961 21.1853C208.932 21.2003 208.907 21.221 208.886 21.2462C208.865 21.2713 208.85 21.3004 208.841 21.3317C208.831 21.363 208.828 21.3958 208.832 21.4282C208.839 21.4955 208.872 21.5575 208.923 21.6015C208.974 21.6454 209.041 21.6678 209.108 21.664C209.422 21.661 209.731 21.7343 210.009 21.8775C210.287 22.0207 210.526 22.2295 210.706 22.4858C210.731 22.5171 210.763 22.5419 210.799 22.5583C210.835 22.5748 210.875 22.5822 210.915 22.5801Z" fill="#263238"/>
<path d="M201.796 22.7886C201.836 22.7831 201.874 22.7679 201.907 22.7445C201.939 22.721 201.966 22.6899 201.984 22.6539C202.113 22.3623 202.309 22.1054 202.556 21.904C202.803 21.7027 203.095 21.5626 203.406 21.4952C203.439 21.4921 203.471 21.4821 203.5 21.4658C203.529 21.4494 203.554 21.4272 203.574 21.4005C203.594 21.3738 203.608 21.3432 203.615 21.3108C203.622 21.2783 203.622 21.2448 203.615 21.2123C203.604 21.1474 203.568 21.0893 203.516 21.0493C203.463 21.0094 203.398 20.9906 203.332 20.9967C202.939 21.0742 202.57 21.2442 202.256 21.4925C201.942 21.7409 201.692 22.0605 201.526 22.4248C201.498 22.4848 201.494 22.5535 201.515 22.6164C201.536 22.6792 201.581 22.7313 201.641 22.7616C201.689 22.7841 201.742 22.7934 201.796 22.7886Z" fill="#263238"/>
<path d="M226.302 45.9752C227.124 47.7064 227.812 49.3433 228.486 51.0274C229.16 52.7115 229.76 54.4292 230.36 56.147C231.537 59.6479 232.487 63.2211 233.204 66.8441C233.359 67.7805 233.534 68.6966 233.649 69.6599L233.736 70.3739L233.783 70.731V70.9128V71.1621C233.851 71.8588 233.851 72.5604 233.783 73.2571C233.628 74.7815 233.103 76.2451 232.254 77.5211C231.458 78.6898 230.413 79.6676 229.194 80.384C228.178 80.9803 227.085 81.4337 225.945 81.7313C224.93 82.0089 223.893 82.1938 222.844 82.2837C220.868 82.4705 218.875 82.3912 216.92 82.0479C216.39 81.959 215.907 81.6885 215.554 81.2829C215.201 80.8772 215 80.3616 214.986 79.8243C214.972 79.287 215.145 78.7615 215.475 78.3376C215.806 77.9138 216.274 77.618 216.799 77.5009L217.041 77.447C217.715 77.2921 218.598 77.1035 219.353 76.9014C220.108 76.6993 220.876 76.4635 221.591 76.2278C222.838 75.8285 223.995 75.1876 224.995 74.3416C225.259 74.0967 225.46 73.7917 225.581 73.4524C225.629 73.2145 225.629 72.9695 225.581 72.7316C225.558 72.5501 225.524 72.3702 225.48 72.1927L225.237 71.0947C225.082 70.3268 224.86 69.5319 224.658 68.7505C224.24 67.1675 223.768 65.5845 223.229 63.9947C222.689 62.4049 222.137 60.8219 221.55 59.2389C220.964 57.6559 220.344 56.0729 219.717 54.5235C219.09 52.9742 218.43 51.344 217.803 49.8687V49.8014C217.299 48.6776 217.262 47.3998 217.701 46.2489C218.139 45.098 219.017 44.1685 220.142 43.6646C221.266 43.1608 222.545 43.1241 223.696 43.5624C224.848 44.0008 225.778 44.8784 226.282 46.0021L226.302 45.9752Z" fill="#263238"/>
<path d="M214.79 79.441L211.818 80.8691L216.954 82.6946C216.954 82.6946 220.378 81.6034 218.72 79.7037L217.796 79.4141C216.313 78.9291 215.586 78.983 214.79 79.441Z" fill="#FFC3BD"/>
<path d="M212.215 84.4928L214.473 84.9239C214.796 84.9831 215.129 84.9404 215.426 84.8015C215.724 84.6627 215.97 84.4346 216.131 84.1492L216.954 82.674L211.818 80.8687L211.144 82.2765C211.039 82.4894 210.984 82.7233 210.984 82.9605C210.983 83.1977 211.036 83.432 211.139 83.6456C211.243 83.8591 211.393 84.0464 211.58 84.1932C211.766 84.34 211.984 84.4424 212.215 84.4928Z" fill="#FFC3BD"/>
</g>
<defs>
<clipPath id="clip0_395_22106">
<rect width="337" height="251" fill="white"/>
</clipPath>
</defs>
</svg>
