<svg width="386" height="382" viewBox="0 0 386 382" fill="none" xmlns="http://www.w3.org/2000/svg">
<circle cx="193" cy="175.789" r="134.008" fill="#F6E4FF"/>
<circle cx="193" cy="175.789" r="104.742" fill="#D68FFF"/>
<path d="M189.271 307.732L189.087 307.521L188.891 307.721C176.634 320.249 159.54 328.023 140.629 328.023C118.057 328.023 98.0724 316.947 85.8133 299.932L85.5295 299.538L85.3614 299.993C79.3233 316.356 63.5882 328.023 45.129 328.023C21.4522 328.023 2.25827 308.829 2.25827 285.152C2.25827 261.475 21.4522 242.282 45.129 242.282C55.8425 242.282 65.6376 246.211 73.1525 252.708L73.5211 253.026L73.5779 252.543C77.5187 219.008 106.036 192.991 140.629 192.991C163.937 192.991 184.486 204.801 196.619 222.765L196.775 222.997L196.994 222.822C207.09 214.757 219.891 209.935 233.819 209.935C259.516 209.935 281.38 226.351 289.493 249.27L289.597 249.562L289.865 249.407C296.039 245.854 303.199 243.822 310.835 243.822C333.249 243.822 351.572 261.337 352.863 283.427L352.883 283.772L353.207 283.656C355.609 282.797 358.197 282.33 360.895 282.33C373.513 282.33 383.742 292.559 383.742 305.176C383.742 317.794 373.513 328.023 360.895 328.023C352.192 328.023 344.626 323.157 340.768 315.996L340.605 315.693L340.36 315.935C332.761 323.411 322.337 328.023 310.835 328.023C296.646 328.023 284.097 321.005 276.47 310.249L276.29 309.997L276.074 310.218C265.351 321.203 250.382 328.023 233.819 328.023C216.039 328.023 200.096 320.165 189.271 307.732Z" fill="white" stroke="#D68FFF" stroke-width="0.516544"/>
<path d="M2 285.152C2 261.333 21.3095 242.023 45.129 242.023C55.9069 242.023 65.7614 245.977 73.3214 252.512C77.2773 218.85 105.903 192.733 140.629 192.733C164.026 192.733 184.654 204.589 196.833 222.62C206.973 214.52 219.83 209.676 233.819 209.676C259.629 209.676 281.588 226.165 289.737 249.183C295.949 245.608 303.153 243.564 310.835 243.564C333.386 243.564 351.822 261.187 353.12 283.412C355.55 282.544 358.167 282.072 360.895 282.072C373.656 282.072 384 292.416 384 305.176" stroke="#D68FFF" stroke-width="2.06618" stroke-linecap="round"/>
<path d="M261.023 304.158C261.624 304.759 262.599 304.759 263.201 304.158L271.105 296.253C271.133 296.226 271.175 296.154 271.223 296.061C271.455 295.613 271.557 295.101 271.557 294.597L271.557 109.555L115.984 109.555L115.984 293.827L115.984 294.597C115.984 295.367 116.34 296.156 116.438 296.253L124.342 304.158C124.944 304.759 125.919 304.759 126.521 304.158L133.974 296.704L141.427 304.158C142.029 304.759 143.004 304.759 143.606 304.158L151.059 296.704L158.512 304.158C159.114 304.759 160.089 304.759 160.691 304.158L168.144 296.704L175.597 304.158C176.199 304.759 177.174 304.759 177.776 304.158L185.229 296.704L192.682 304.158C193.284 304.759 194.259 304.759 194.861 304.158L202.314 296.704L209.767 304.158C210.369 304.759 211.344 304.759 211.946 304.158L219.399 296.704L226.852 304.158C227.454 304.759 228.429 304.759 229.031 304.158L236.484 296.704L243.938 304.158C244.539 304.759 245.514 304.759 246.116 304.158L253.569 296.704L261.023 304.158Z" fill="#E8E0E5" stroke="#9F16E4" stroke-width="1.54963"/>
<path fill-rule="evenodd" clip-rule="evenodd" d="M172.976 198.894C176.379 198.894 179.137 196.136 179.137 192.733C179.137 189.33 176.379 186.572 172.976 186.572C169.573 186.572 166.815 189.33 166.815 192.733C166.815 196.136 169.573 198.894 172.976 198.894ZM214.565 198.894C217.967 198.894 220.726 196.136 220.726 192.733C220.726 189.33 217.967 186.572 214.565 186.572C211.162 186.572 208.403 189.33 208.403 192.733C208.403 196.136 211.162 198.894 214.565 198.894Z" fill="#0C2B42"/>
<path d="M168.355 218.918C173.907 227.006 183.219 232.31 193.77 232.31C204.321 232.31 213.633 227.006 219.186 218.918" stroke="#0C2B42" stroke-width="2.58272" stroke-linecap="round"/>
<circle cx="143.71" cy="86.4506" r="4.62097" stroke="#0C2B42" stroke-width="1.54963"/>
<circle cx="316.226" cy="231.241" r="3.08065" stroke="#0C2B42" stroke-width="1.54963"/>
<path d="M143.71 137.281H213.024M143.71 153.455H185.298" stroke="#C161F9" stroke-width="1.54963" stroke-linecap="round"/>
<path d="M131.387 277.451H256.153M131.387 262.047H206.247" stroke="#C161F9" stroke-width="1.54963" stroke-linecap="round"/>
<circle cx="75.1653" cy="207.366" r="6.93145" stroke="#0C2B42" stroke-width="1.54963"/>
<path d="M283.932 111.096H299.282M273.097 97.807V84.9102" stroke="#6E7191" stroke-width="1.54963" stroke-linecap="round"/>
<path d="M283.029 100.538L293.24 90.3276" stroke="#6E7191" stroke-width="1.54963" stroke-linecap="round"/>
<ellipse cx="193.77" cy="335.213" rx="77.7863" ry="6.93145" fill="#ABC0DC"/>
</svg>
