<svg width="25" height="24" viewBox="0 0 25 24" fill="none" xmlns="http://www.w3.org/2000/svg">
<path d="M19.4445 9.1875L15.4445 5.1875M19.4445 9.1875L14.446 14.1859C13.7873 14.8446 12.9878 15.3646 12.0699 15.5229C11.1431 15.6828 9.99294 15.736 9.44444 15.1875C8.89595 14.639 8.94915 13.4888 9.109 12.562C9.26731 11.6441 9.78735 10.8446 10.446 10.1859L15.4445 5.1875M19.4445 9.1875C19.4445 9.1875 22.4444 6.1875 20.4444 4.1875C18.4444 2.1875 15.4445 5.1875 15.4445 5.1875M21 12C21 18.5 19 20.5 12.5 20.5C6 20.5 4 18.5 4 12C4 5.5 6 3.5 12.5 3.5" stroke="#E8E0E5" stroke-width="1.5" stroke-linecap="round" stroke-linejoin="round"/>
</svg>
